<?xml version="1.0" encoding="utf-8"?>
<!-- Generator: Adobe Illustrator 19.0.0, SVG Export Plug-In . SVG Version: 6.00 Build 0)  -->
<svg version="1.1" id="OBJECTS" xmlns="http://www.w3.org/2000/svg" xmlns:xlink="http://www.w3.org/1999/xlink" x="0px" y="0px"
	 viewBox="-242.8 1065.5 37.3 29.1" style="enable-background:new -242.8 1065.5 37.3 29.1;" xml:space="preserve">
<style type="text/css">
	.st0{enable-background:new    ;}
	.st1{fill:none;}
	.st2{fill:#A31F1F;}
	.st3{fill:#45494D;}
	.st4{fill:#C3A576;}
	.st5{fill:#FFFFFF;}
	.st6{opacity:0.8;fill:#1D252A;enable-background:new    ;}
	.st7{fill:#1D252A;}
</style>
<text transform="matrix(1 0 0 1 442.0005 427.9379)" style="font-family:'Poppins-Bold'; font-size:58.368px;">Space</text>
<rect x="596.1" y="441.3" width="20.3" height="2.3"/>
<path class="st1" d="M553.4,450c-2.1,0-3.9,0.7-5.2,2.1c-1.3,1.4-2,3.3-2,5.8s0.7,4.4,2,5.8c1.3,1.4,3,2.1,5.2,2.1
	c2.1,0,3.8-0.7,5.2-2.2c1.3-1.4,2-3.4,2-5.8c0-2.5-0.7-4.4-2-5.8C557.2,450.7,555.5,450,553.4,450z"/>
<path d="M520.6,441.3c-2.4,0-4.5,0.6-6.5,1.8c-2,1.2-3.5,2.8-4.6,4.8c-1-2.1-2.4-3.8-4.3-4.9s-4.1-1.7-6.6-1.7
	c-2.4,0-4.4,0.5-6.2,1.6c-1.8,1.1-3.1,2.5-3.9,4.3v-5.5h-10v32.6h10V457c0-2.3,0.6-4,1.8-5.2c1.2-1.2,2.7-1.8,4.7-1.8
	c1.9,0,3.4,0.6,4.5,1.7s1.6,2.8,1.6,4.8v17.7h10v-17.3c0-2.2,0.6-3.9,1.7-5.2c1.1-1.3,2.7-1.8,4.7-1.8c1.9,0,3.4,0.6,4.5,1.7
	c1.1,1.1,1.7,2.8,1.7,4.8v17.7h9.9v-18.9c0-4.4-1.1-7.8-3.4-10.3C527.7,442.5,524.6,441.3,520.6,441.3z"/>
<path d="M560.5,447.6c-0.9-1.9-2.2-3.5-4-4.6s-3.9-1.7-6.4-1.7c-2.7,0-5.1,0.7-7.2,2c-2.1,1.3-3.8,3.3-5,5.8
	c-1.2,2.5-1.8,5.5-1.8,8.9s0.6,6.3,1.8,8.9c1.2,2.5,2.9,4.5,5,5.8c2.1,1.3,4.5,2,7.2,2c2.5,0,4.6-0.6,6.4-1.7s3.1-2.7,4-4.6v5.9h9.9
	v-32.6h-9.9V447.6z M558.5,463.7c-1.3,1.4-3.1,2.2-5.2,2.2s-3.9-0.7-5.2-2.1c-1.3-1.4-2-3.3-2-5.8s0.7-4.4,2-5.8s3-2.1,5.2-2.1
	c2.1,0,3.8,0.7,5.2,2.1c1.3,1.4,2,3.4,2,5.8S559.9,462.3,558.5,463.7z"/>
<path d="M596,450.1h-0.4v-8.4h0.6v-0.4c-2.3,0-4.4,0.6-6.4,1.8c-2,1.2-3.6,2.7-4.8,4.7v-6.1h-10v32.6h10v-14.8c0-0.1,0-0.2,0-0.2
	c0-0.1,0-0.2,0-0.3C585,451,594,450.2,596,450.1z"/>
<path d="M613.4,465.7c-1.2,0-2.1-0.3-2.7-0.8c-0.5-0.5-0.8-1.4-0.8-2.7v-12.1h6.5v-8.4h-6.5v-8h-10v8h-3.7v8.4c0.1,0,0.1,0,0.1,0
	l0,0h3.6v12c0,4.4,1.1,7.5,3.2,9.4s5.1,2.8,8.9,2.8h4.5v-8.6L613.4,465.7L613.4,465.7z"/>
<path d="M595.6,450.1h0.4c0.1,0,0.2,0,0.2,0v-8.4h-0.6V450.1z"/>
<path class="st2" d="M596.2,450.1L596.2,450.1h0.1l0,0C596.3,450.1,596.3,450.1,596.2,450.1z"/>
<path class="st2" d="M596.2,450.1L596.2,450.1c-0.1,0-0.1,0-0.2,0H596.2z"/>
<path d="M400,469.8c0.3,8.7-6.6,15.9-15.3,16.3c-8.7,0.4-16.1-6.3-16.6-15s6.4-16.1,15.3-16.5C392.3,454.3,399.7,461.1,400,469.8z"
	/>
<path d="M630.4,471c0.1,2.4-1.8,4.4-4.2,4.5s-4.4-1.7-4.5-4.1s1.7-4.4,4.2-4.5C628.2,466.8,630.3,468.6,630.4,471z"/>
<g>
	<g>
		<path d="M436,387.2l-29.8,0.2c-1.7,0-3.4,0.7-4.6,2l-28.2,38.9l-9.7-0.1c-9.5-0.1-17.8,7.6-18.4,17.2l-1.8,28.8h13.9l-0.6-2.8l0,0
			c0-15.7,12.7-28.4,28.4-28.4h49.1 M405.5,396.3c1.1-1.7,3-2.7,4.9-2.6l15.8,0.5c2.4,0.1,4.2,2.1,4,4.4l-1.7,26.3
			c-0.1,2.2-2,4-4.3,3.9L392,428c-3.3-0.1-5.2-3.7-3.4-6.5L405.5,396.3z"/>
	</g>
</g>
<g>
	<g>
		<rect x="408.6" y="452.8" width="61.9" height="5.7"/>
	</g>
</g>
<g>
	<g>
		<rect x="414.1" y="468.5" width="56.4" height="5.7"/>
	</g>
</g>
<text transform="matrix(1 0 0 1 631 476.39)" style="font-family:'Poppins-Bold'; font-size:58.368px;">com</text>
<path class="st1" d="M-203.7,942.8c-0.6,0-1.1,0.2-1.5,0.6c-0.4,0.4-0.6,1-0.6,1.7s0.2,1.3,0.6,1.7s0.9,0.6,1.5,0.6s1.1-0.2,1.5-0.6
	c0.4-0.4,0.6-1,0.6-1.7s-0.2-1.3-0.6-1.7S-203.1,942.8-203.7,942.8z"/>
<g>
	<path class="st3" d="M-213.4,940.3c-0.7,0-1.3,0.2-1.9,0.5c-0.6,0.4-1,0.8-1.4,1.4c-0.3-0.6-0.7-1.1-1.3-1.5
		c-0.6-0.3-1.2-0.5-1.9-0.5c-0.7,0-1.3,0.2-1.8,0.5s-0.9,0.7-1.2,1.3v-1.6h-2.9v9.6h2.9v-5.1c0-0.7,0.2-1.2,0.5-1.5
		c0.3-0.4,0.8-0.5,1.4-0.5s1,0.2,1.3,0.5s0.5,0.8,0.5,1.4v5.2h2.9v-5.1c0-0.7,0.2-1.2,0.5-1.5c0.3-0.4,0.8-0.5,1.4-0.5
		s1,0.2,1.3,0.5s0.5,0.8,0.5,1.4v5.2h2.9v-5.6c0-1.3-0.3-2.3-1-3C-211.3,940.6-212.2,940.3-213.4,940.3z"/>
	<path class="st3" d="M-201.6,940.4v1.7c-0.3-0.6-0.6-1-1.2-1.4c-0.5-0.3-1.2-0.5-1.9-0.5c-0.8,0-1.5,0.2-2.1,0.6
		c-0.6,0.4-1.1,1-1.5,1.7s-0.5,1.6-0.5,2.6s0.2,1.9,0.5,2.6c0.4,0.7,0.9,1.3,1.5,1.7s1.3,0.6,2.1,0.6c0.7,0,1.4-0.2,1.9-0.5
		s0.9-0.8,1.2-1.4v1.7h2.9v-9.6h-2.9V940.4z M-202.2,946.9c-0.4,0.4-0.9,0.6-1.5,0.6s-1.1-0.2-1.5-0.6c-0.4-0.4-0.6-1-0.6-1.7
		s0.2-1.3,0.6-1.7s0.9-0.6,1.5-0.6s1.1,0.2,1.5,0.6c0.4,0.4,0.6,1,0.6,1.7S-201.8,946.4-202.2,946.9z"/>
</g>
<g>
	<path class="st3" d="M-228.6,929.9c-0.5-0.3-1.1-0.5-1.9-0.8c-0.5-0.2-1-0.4-1.2-0.5c-0.3-0.1-0.5-0.3-0.7-0.5s-0.3-0.4-0.3-0.7
		c0-0.4,0.1-0.6,0.3-0.8c0.2-0.2,0.5-0.3,0.8-0.3c0.4,0,0.7,0.1,1,0.4c0.2,0.2,0.4,0.6,0.4,1h3.2c-0.1-1.1-0.6-2-1.3-2.6
		c-0.8-0.6-1.9-1-3.2-1c-0.8,0-1.6,0.1-2.2,0.4c-0.6,0.3-1.2,0.7-1.5,1.2c-0.4,0.5-0.5,1.2-0.5,1.9c0,0.8,0.2,1.4,0.5,1.9
		s0.8,0.9,1.3,1.1c0.5,0.2,1.1,0.5,1.9,0.8c0.5,0.2,0.9,0.3,1.2,0.5c0.3,0.1,0.5,0.3,0.7,0.5s0.3,0.5,0.3,0.8s-0.1,0.6-0.3,0.8
		c-0.2,0.2-0.5,0.3-0.9,0.3s-0.8-0.1-1.1-0.4c-0.3-0.3-0.4-0.6-0.5-1.1h-3.1c0.1,1.2,0.6,2.1,1.4,2.8c0.9,0.7,2,1,3.4,1
		c0.9,0,1.7-0.2,2.3-0.5c0.6-0.3,1.1-0.7,1.4-1.3c0.3-0.5,0.5-1.1,0.5-1.8c0-0.8-0.2-1.4-0.5-1.9
		C-227.6,930.5-228.1,930.1-228.6,929.9z"/>
	<path class="st3" d="M-217.7,927.2c-0.6-0.4-1.3-0.6-2.1-0.6c-0.7,0-1.4,0.2-1.9,0.5s-0.9,0.8-1.2,1.4v-1.7h-2.9v14.1h2.9v-6.3
		c0.2,0.6,0.6,1,1.2,1.4c0.5,0.3,1.2,0.5,1.9,0.5c0.8,0,1.5-0.2,2.1-0.6c0.6-0.4,1.1-1,1.5-1.7s0.5-1.6,0.5-2.6s-0.2-1.9-0.5-2.6
		C-216.6,928.2-217.1,927.6-217.7,927.2z M-219.3,933.3c-0.4,0.4-0.9,0.6-1.5,0.6s-1.1-0.2-1.5-0.6c-0.4-0.4-0.6-1-0.6-1.7
		s0.2-1.3,0.6-1.7s0.9-0.6,1.5-0.6s1.1,0.2,1.5,0.6c0.4,0.4,0.6,1,0.6,1.7C-218.7,932.3-218.9,932.9-219.3,933.3z"/>
	<path class="st3" d="M-208.2,928.5c-0.3-0.6-0.6-1-1.2-1.4c-0.5-0.3-1.2-0.5-1.9-0.5c-0.8,0-1.5,0.2-2.1,0.6
		c-0.6,0.4-1.1,1-1.5,1.7s-0.5,1.6-0.5,2.6s0.2,1.9,0.5,2.6c0.4,0.7,0.9,1.3,1.5,1.7s1.3,0.6,2.1,0.6c0.7,0,1.4-0.2,1.9-0.5
		s0.9-0.8,1.2-1.4v1.7h2.9v-9.6h-2.9V928.5z M-208.8,933.2c-0.4,0.4-0.9,0.6-1.5,0.6s-1.1-0.2-1.5-0.6c-0.4-0.4-0.6-1-0.6-1.7
		s0.2-1.3,0.6-1.7s0.9-0.6,1.5-0.6s1.1,0.2,1.5,0.6c0.4,0.4,0.6,1,0.6,1.7C-208.2,932.3-208.4,932.8-208.8,933.2z"/>
	<path class="st3" d="M-194.9,932.6h-3.1c-0.1,0.4-0.3,0.7-0.6,1c-0.3,0.2-0.6,0.3-1.1,0.3s-0.9-0.2-1.3-0.6c-0.3-0.4-0.5-1-0.5-1.8
		s0.2-1.4,0.5-1.8c0.3-0.4,0.8-0.6,1.3-0.6c0.4,0,0.8,0.1,1.1,0.3c0.3,0.2,0.5,0.5,0.6,1h3.1c-0.2-1.2-0.7-2.1-1.6-2.8
		c-0.8-0.7-1.9-1-3.1-1c-0.9,0-1.8,0.2-2.5,0.6c-0.7,0.4-1.3,1-1.7,1.7c-0.4,0.7-0.6,1.6-0.6,2.6s0.2,1.9,0.6,2.6
		c0.4,0.7,1,1.3,1.7,1.7s1.6,0.6,2.5,0.6c1.2,0,2.3-0.3,3.1-1C-195.6,934.8-195.1,933.8-194.9,932.6z"/>
	<path class="st3" d="M-185,931.3c0-0.9-0.2-1.7-0.6-2.4s-1-1.3-1.7-1.6c-0.7-0.4-1.6-0.6-2.5-0.6s-1.8,0.2-2.5,0.6
		c-0.7,0.4-1.3,1-1.7,1.7c-0.4,0.7-0.6,1.6-0.6,2.6s0.2,1.9,0.6,2.6c0.4,0.7,1,1.3,1.7,1.7s1.6,0.6,2.5,0.6c0.8,0,1.5-0.2,2.2-0.5
		s1.2-0.7,1.6-1.3c0.4-0.5,0.7-1.1,0.8-1.8h-3.1c-0.1,0.3-0.3,0.6-0.6,0.8s-0.6,0.3-1.1,0.3s-0.9-0.2-1.3-0.5
		c-0.3-0.3-0.5-0.8-0.5-1.6h6.6C-185,931.8-185,931.5-185,931.3z M-191.7,930.8c0-0.6,0.2-1.1,0.6-1.4c0.4-0.3,0.8-0.5,1.3-0.5
		s0.9,0.2,1.3,0.5c0.3,0.3,0.5,0.8,0.5,1.4H-191.7z"/>
	<path class="st3" d="M-186.9,947.2c-0.2-0.1-0.2-0.4-0.2-0.8v-3.6h1.9v-2.5l0,0v-0.1h-1.9V938h-2.9v2.2h-1.1l0,0
		c-0.7,0-1.3,0.2-1.9,0.5s-1.1,0.8-1.4,1.4v-1.8h-2.9v9.6h2.9v-4.4c0,0,0,0,0-0.1v-0.1c0-2.3,2.7-2.6,3.2-2.6h0.1l0,0h1.1v3.5
		c0,1.3,0.3,2.2,0.9,2.8s1.5,0.8,2.6,0.8h1.3v-2.5h-0.9C-186.5,947.4-186.7,947.4-186.9,947.2z"/>
</g>
<path class="st4" d="M-248.8,948.6c0.1,2.6-1.9,4.7-4.5,4.8s-4.7-1.8-4.9-4.4c-0.1-2.6,1.9-4.7,4.5-4.9
	C-251.1,944.1-248.9,946.1-248.8,948.6z"/>
<g>
	<g>
		<path class="st4" d="M-238.3,924.4l-8.8,0.1c-0.5,0-1,0.2-1.4,0.6l-8.3,11.4h-2.8c-2.8,0-5.2,2.2-5.4,5.1l-0.5,8.5h4.1l-0.2-0.8
			l0,0c0-4.6,3.7-8.3,8.3-8.3h14.4 M-247.2,927c0.3-0.5,0.9-0.8,1.4-0.8l4.7,0.2c0.7,0,1.2,0.6,1.2,1.3l-0.5,7.7
			c0,0.7-0.6,1.2-1.3,1.1l-9.5-0.2c-1,0-1.5-1.1-1-1.9L-247.2,927z"/>
	</g>
</g>
<g>
	<g>
		<rect x="-246.3" y="943.6" class="st4" width="18.2" height="1.7"/>
	</g>
</g>
<g>
	<g>
		<rect x="-244.7" y="948.3" class="st4" width="16.6" height="1.7"/>
	</g>
</g>
<g>
	<path class="st5" d="M-211,985.9c-0.7,0-1.3,0.2-1.9,0.5c-0.6,0.4-1,0.8-1.4,1.4c-0.3-0.6-0.7-1.1-1.3-1.5
		c-0.6-0.3-1.2-0.5-1.9-0.5c-0.7,0-1.3,0.2-1.8,0.5s-0.9,0.7-1.2,1.3V986h-2.9v9.6h2.9v-5.1c0-0.7,0.2-1.2,0.5-1.5
		c0.3-0.4,0.8-0.5,1.4-0.5s1,0.2,1.3,0.5s0.5,0.8,0.5,1.4v5.2h2.9v-5.1c0-0.7,0.2-1.2,0.5-1.5s0.8-0.5,1.4-0.5s1,0.2,1.3,0.5
		s0.5,0.8,0.5,1.4v5.2h2.9V990c0-1.3-0.3-2.3-1-3C-208.9,986.2-209.9,985.9-211,985.9z"/>
	<path class="st5" d="M-199.3,986v1.7c-0.3-0.6-0.6-1-1.2-1.4c-0.5-0.3-1.2-0.5-1.9-0.5c-0.8,0-1.5,0.2-2.1,0.6
		c-0.6,0.4-1.1,1-1.5,1.7s-0.5,1.6-0.5,2.6s0.2,1.9,0.5,2.6c0.4,0.7,0.9,1.3,1.5,1.7s1.3,0.6,2.1,0.6c0.7,0,1.4-0.2,1.9-0.5
		s0.9-0.8,1.2-1.4v1.7h2.9v-9.6h-2.9V986z M-199.9,992.4c-0.4,0.4-0.9,0.6-1.5,0.6s-1.1-0.2-1.5-0.6c-0.4-0.4-0.6-1-0.6-1.7
		s0.2-1.3,0.6-1.7s0.9-0.6,1.5-0.6s1.1,0.2,1.5,0.6c0.4,0.4,0.6,1,0.6,1.7C-199.3,991.5-199.5,992-199.9,992.4z"/>
</g>
<g>
	<path class="st5" d="M-226.2,975.5c-0.5-0.3-1.1-0.5-1.9-0.8c-0.5-0.2-1-0.4-1.2-0.5c-0.3-0.1-0.5-0.3-0.7-0.5s-0.3-0.4-0.3-0.7
		c0-0.4,0.1-0.6,0.3-0.8c0.2-0.2,0.5-0.3,0.8-0.3c0.4,0,0.7,0.1,1,0.4c0.2,0.2,0.4,0.6,0.4,1h3.2c-0.1-1.1-0.6-2-1.3-2.6
		c-0.8-0.6-1.9-1-3.2-1c-0.8,0-1.6,0.1-2.2,0.4c-0.6,0.3-1.2,0.7-1.5,1.2c-0.4,0.5-0.5,1.2-0.5,1.9c0,0.8,0.2,1.4,0.5,1.9
		s0.8,0.9,1.3,1.1c0.5,0.2,1.1,0.5,1.9,0.8c0.5,0.2,0.9,0.3,1.2,0.5c0.3,0.1,0.5,0.3,0.7,0.5s0.3,0.5,0.3,0.8s-0.1,0.6-0.3,0.8
		c-0.2,0.2-0.5,0.3-0.9,0.3s-0.8-0.1-1.1-0.4c-0.3-0.3-0.4-0.6-0.5-1.1h-3.1c0.1,1.2,0.6,2.1,1.4,2.8c0.9,0.7,2,1,3.4,1
		c0.9,0,1.7-0.2,2.3-0.5c0.6-0.3,1.1-0.7,1.4-1.3c0.3-0.5,0.5-1.1,0.5-1.8c0-0.8-0.2-1.4-0.5-1.9
		C-225.3,976.1-225.7,975.7-226.2,975.5z"/>
	<path class="st5" d="M-215.4,972.8c-0.6-0.4-1.3-0.6-2.1-0.6c-0.7,0-1.4,0.2-1.9,0.5s-0.9,0.8-1.2,1.4v-1.7h-2.9v14.1h2.9v-6.3
		c0.2,0.6,0.6,1,1.2,1.4c0.5,0.3,1.2,0.5,1.9,0.5c0.8,0,1.5-0.2,2.1-0.6c0.6-0.4,1.1-1,1.5-1.7s0.5-1.6,0.5-2.6s-0.2-1.9-0.5-2.6
		C-214.3,973.8-214.7,973.2-215.4,972.8z M-216.9,978.9c-0.4,0.4-0.9,0.6-1.5,0.6s-1.1-0.2-1.5-0.6c-0.4-0.4-0.6-1-0.6-1.7
		s0.2-1.3,0.6-1.7s0.9-0.6,1.5-0.6s1.1,0.2,1.5,0.6c0.4,0.4,0.6,1,0.6,1.7S-216.5,978.4-216.9,978.9z"/>
	<path class="st5" d="M-205.8,974.1c-0.3-0.6-0.6-1-1.2-1.4c-0.5-0.3-1.2-0.5-1.9-0.5c-0.8,0-1.5,0.2-2.1,0.6
		c-0.6,0.4-1.1,1-1.5,1.7s-0.5,1.6-0.5,2.6s0.2,1.9,0.5,2.6c0.4,0.7,0.9,1.3,1.5,1.7s1.3,0.6,2.1,0.6c0.7,0,1.4-0.2,1.9-0.5
		s0.9-0.8,1.2-1.4v1.7h2.9v-9.6h-2.9V974.1z M-206.4,978.8c-0.4,0.4-0.9,0.6-1.5,0.6s-1.1-0.2-1.5-0.6c-0.4-0.4-0.6-1-0.6-1.7
		s0.2-1.3,0.6-1.7s0.9-0.6,1.5-0.6s1.1,0.2,1.5,0.6c0.4,0.4,0.6,1,0.6,1.7S-206,978.4-206.4,978.8z"/>
	<path class="st5" d="M-192.5,978.2h-3.1c-0.1,0.4-0.3,0.7-0.6,1c-0.3,0.2-0.6,0.3-1.1,0.3s-0.9-0.2-1.3-0.6c-0.3-0.4-0.5-1-0.5-1.8
		s0.2-1.4,0.5-1.8c0.3-0.4,0.8-0.6,1.3-0.6c0.4,0,0.8,0.1,1.1,0.3c0.3,0.2,0.5,0.5,0.6,1h3.1c-0.2-1.2-0.7-2.1-1.6-2.8
		c-0.8-0.7-1.9-1-3.1-1c-0.9,0-1.8,0.2-2.5,0.6c-0.7,0.4-1.3,1-1.7,1.7c-0.4,0.7-0.6,1.6-0.6,2.6s0.2,1.9,0.6,2.6
		c0.4,0.7,1,1.3,1.7,1.7s1.6,0.6,2.5,0.6c1.2,0,2.3-0.3,3.1-1C-193.3,980.3-192.8,979.4-192.5,978.2z"/>
	<path class="st5" d="M-182.6,976.9c0-0.9-0.2-1.7-0.6-2.4s-1-1.3-1.7-1.6c-0.7-0.4-1.6-0.6-2.5-0.6s-1.8,0.2-2.5,0.6
		c-0.7,0.4-1.3,1-1.7,1.7c-0.4,0.7-0.6,1.6-0.6,2.6s0.2,1.9,0.6,2.6c0.4,0.7,1,1.3,1.7,1.7s1.6,0.6,2.5,0.6c0.8,0,1.5-0.2,2.2-0.5
		s1.2-0.7,1.6-1.3c0.4-0.5,0.7-1.1,0.8-1.8h-3.1c-0.1,0.3-0.3,0.6-0.6,0.8c-0.3,0.2-0.6,0.3-1.1,0.3s-0.9-0.2-1.3-0.5
		c-0.3-0.3-0.5-0.8-0.5-1.6h6.6C-182.6,977.4-182.6,977.1-182.6,976.9z M-189.3,976.4c0-0.6,0.2-1.1,0.6-1.4
		c0.4-0.3,0.8-0.5,1.3-0.5s0.9,0.2,1.3,0.5c0.3,0.3,0.5,0.8,0.5,1.4H-189.3z"/>
	<path class="st5" d="M-184.5,992.8c-0.2-0.1-0.2-0.4-0.2-0.8v-3.6h1.9v-2.5l0,0v0h-1.9v-2.2h-2.9v2.2h-1.1l0,0
		c-0.7,0-1.3,0.2-1.9,0.5s-1.1,0.8-1.4,1.4V986h-2.9v9.6h2.9v-4.4c0,0,0,0,0-0.1V991c0-2.3,2.7-2.6,3.2-2.6h0.1l0,0h1.1v3.5
		c0,1.3,0.3,2.2,0.9,2.8s1.5,0.8,2.6,0.8h1.3V993h-0.9C-184.1,993-184.4,992.9-184.5,992.8z"/>
</g>
<path class="st5" d="M-246.5,994.2c0.1,2.6-1.9,4.7-4.5,4.8s-4.7-1.8-4.9-4.4s1.9-4.7,4.5-4.9C-248.8,989.7-246.6,991.7-246.5,994.2
	z"/>
<g>
	<g>
		<path class="st5" d="M-235.9,969.9l-8.8,0.1c-0.5,0-1,0.2-1.4,0.6l-8.3,11.4h-2.8c-2.8,0-5.2,2.2-5.4,5.1l-0.5,8.5h4.1l-0.2-0.8
			l0,0c0-4.6,3.7-8.3,8.3-8.3h14.4 M-244.9,972.6c0.3-0.5,0.9-0.8,1.4-0.8l4.7,0.2c0.7,0,1.2,0.6,1.2,1.3l-0.5,7.7
			c0,0.7-0.6,1.2-1.3,1.1l-9.5-0.2c-1,0-1.5-1.1-1-1.9L-244.9,972.6z"/>
	</g>
</g>
<g>
	<g>
		<rect x="-244" y="989.2" class="st5" width="18.2" height="1.7"/>
	</g>
</g>
<g>
	<g>
		<rect x="-242.4" y="993.9" class="st5" width="16.6" height="1.7"/>
	</g>
</g>
<path class="st4" d="M-226.2,1089.8c0.1,2.6-1.9,4.7-4.5,4.8c-2.6,0.1-4.7-1.8-4.9-4.4c-0.1-2.6,1.9-4.7,4.5-4.9
	C-228.5,1085.2-226.3,1087.3-226.2,1089.8z"/>
<g>
	<g>
		<path class="st4" d="M-215.6,1065.5l-8.8,0.1c-0.5,0-1,0.2-1.4,0.6l-8.3,11.4h-2.8c-2.8,0-5.2,2.2-5.4,5.1l-0.5,8.5h4.1l-0.2-0.8
			l0,0c0-4.6,3.7-8.3,8.3-8.3h14.4 M-224.6,1068.2c0.3-0.5,0.9-0.8,1.4-0.8l4.7,0.2c0.7,0,1.2,0.6,1.2,1.3l-0.5,7.7
			c0,0.7-0.6,1.2-1.3,1.1l-9.5-0.2c-1,0-1.5-1.1-1-1.9L-224.6,1068.2z"/>
	</g>
</g>
<g>
	<g>
		<rect x="-223.7" y="1084.8" class="st4" width="18.2" height="1.7"/>
	</g>
</g>
<g>
	<g>
		<rect x="-222.1" y="1089.4" class="st4" width="16.6" height="1.7"/>
	</g>
</g>
<path d="M-224.6,1043.5c-0.1,2.6,1.9,4.7,4.5,4.8c2.6,0.1,4.7-1.8,4.9-4.4c0.1-2.6-1.9-4.7-4.5-4.9S-224.6,1040.9-224.6,1043.5z"/>
<g>
	<g>
		<path d="M-234.7,1035.6h14.4c4.6,0,8.3,3.7,8.3,8.3l0,0l-0.2,0.8h4.1l-0.5-8.5c-0.2-2.8-2.6-5.1-5.4-5.1h-2.8l-8.3-11.4
			c-0.4-0.4-0.9-0.6-1.4-0.6l-8.8-0.1 M-221.3,1029.3c0.5,0.8,0,1.9-1,1.9l-9.5,0.2c-0.7,0-1.2-0.5-1.3-1.1l-0.5-7.7
			c0-0.7,0.5-1.3,1.2-1.3l4.7-0.2c0.6,0,1.1,0.3,1.4,0.8L-221.3,1029.3z"/>
	</g>
</g>
<g>
	<g>
		<rect x="-234.5" y="1038.5" width="7.4" height="1.7"/>
	</g>
</g>
<g>
	<g>
		<rect x="-270.7" y="1043.1" width="41.9" height="1.7"/>
	</g>
</g>
<path class="st1" d="M357,122.1c-2.1,0-3.9,0.7-5.2,2.1c-1.3,1.4-2,3.3-2,5.8c0,2.5,0.7,4.4,2,5.8c1.3,1.4,3,2.1,5.2,2.1
	c2.1,0,3.8-0.7,5.2-2.2c1.3-1.4,2-3.4,2-5.8c0-2.5-0.7-4.4-2-5.8C360.8,122.8,359.1,122.1,357,122.1z"/>
<g>
	<path class="st6" d="M272.6,78.1c-1.7-0.9-3.8-1.8-6.5-2.7c-1.8-0.7-3.2-1.2-4.2-1.6s-1.8-1-2.4-1.7c-0.6-0.7-1-1.5-1-2.5
		c0-1.2,0.4-2.1,1.1-2.7c0.7-0.6,1.7-0.9,2.8-0.9c1.4,0,2.4,0.4,3.2,1.2c0.8,0.8,1.3,1.9,1.5,3.2H278c-0.4-3.8-1.9-6.8-4.6-9
		c-2.7-2.2-6.4-3.3-10.9-3.3c-2.8,0-5.4,0.5-7.6,1.4c-2.2,1-3.9,2.3-5.2,4.1c-1.2,1.8-1.9,3.9-1.9,6.4c0,2.6,0.6,4.8,1.8,6.5
		c1.2,1.7,2.6,2.9,4.3,3.7s3.8,1.7,6.4,2.6c1.8,0.6,3.2,1.2,4.2,1.6c1,0.4,1.9,1,2.5,1.7c0.7,0.7,1,1.6,1,2.6c0,1.2-0.4,2.1-1.1,2.8
		c-0.7,0.7-1.8,1.1-3,1.1c-1.5,0-2.7-0.4-3.6-1.3c-1-0.9-1.5-2.1-1.7-3.7H248c0.3,4,1.9,7.2,4.9,9.5s6.8,3.4,11.4,3.4
		c3.1,0,5.7-0.5,7.9-1.6s3.8-2.5,4.9-4.4c1.1-1.8,1.7-3.8,1.7-6c0-2.7-0.6-4.9-1.8-6.5C275.7,80.2,274.3,79,272.6,78.1z"/>
	<path class="st6" d="M341.9,94.2v5.9h9.9V67.5h-9.9v5.9c-0.9-1.9-2.2-3.5-4-4.6s-3.9-1.7-6.4-1.7c-2.7,0-5.1,0.7-7.2,2
		c-2.1,1.3-3.8,3.3-5,5.8c-1.2,2.5-1.8,5.5-1.8,8.9s0.6,6.3,1.8,8.9c1.2,2.6,2.9,4.5,5,5.8c2.1,1.3,4.5,2,7.2,2
		c2.5,0,4.6-0.6,6.4-1.7C339.8,97.6,341.1,96.1,341.9,94.2z M334.8,91.7c-2.1,0-3.9-0.7-5.2-2.1s-2-3.3-2-5.8c0-2.5,0.7-4.4,2-5.8
		c1.3-1.4,3-2.1,5.2-2.1c2.1,0,3.8,0.7,5.2,2.1c1.3,1.4,2,3.4,2,5.8c0,2.4-0.7,4.3-2,5.8C338.6,91,336.9,91.7,334.8,91.7z"/>
	<path class="st6" d="M362.6,98.4c2.5,1.3,5.3,2,8.5,2c4.2,0,7.7-1.2,10.6-3.5c2.8-2.3,4.6-5.5,5.4-9.5h-10.6
		c-0.3,1.4-1,2.5-1.9,3.3s-2.2,1.2-3.7,1.2c-1.8,0-3.2-0.7-4.3-2.1c-1.1-1.4-1.7-3.4-1.7-6s0.6-4.7,1.7-6c1.1-1.4,2.6-2.1,4.3-2.1
		c1.5,0,2.7,0.4,3.7,1.2c1,0.8,1.6,1.9,1.9,3.3H387c-0.7-4-2.5-7.2-5.4-9.5c-2.8-2.3-6.4-3.5-10.6-3.5c-3.2,0-6,0.7-8.5,2
		s-4.4,3.3-5.8,5.8c-1.4,2.5-2.1,5.5-2.1,8.9c0,3.4,0.7,6.3,2.1,8.9C358.2,95.2,360.2,97.1,362.6,98.4z"/>
	<path class="st6" d="M420.8,82.9c0-3.1-0.7-5.9-2-8.3c-1.3-2.4-3.2-4.2-5.7-5.6c-2.5-1.3-5.3-2-8.5-2s-6,0.7-8.5,2
		c-2.5,1.3-4.4,3.3-5.8,5.8s-2.1,5.5-2.1,8.9s0.7,6.3,2.1,8.9c1.4,2.5,3.3,4.5,5.8,5.8s5.3,2,8.5,2c2.7,0,5.2-0.5,7.4-1.5
		s4-2.5,5.5-4.3c1.4-1.8,2.4-3.9,2.8-6.2h-10.6c-0.3,1.2-1,2.1-1.9,2.9c-1,0.7-2.2,1.1-3.7,1.1c-1.8,0-3.2-0.5-4.3-1.6
		c-1.1-1.1-1.8-2.8-1.9-5.3h22.6C420.7,84.6,420.8,83.7,420.8,82.9z M398,81.4c0.2-2.1,0.8-3.7,2-4.8c1.2-1.1,2.7-1.6,4.6-1.6
		c1.8,0,3.2,0.5,4.4,1.6c1.2,1.1,1.8,2.7,1.7,4.8H398z"/>
	<path class="st6" d="M324.2,113.4c-2.4,0-4.5,0.6-6.5,1.8c-2,1.2-3.5,2.8-4.6,4.8c-1-2.1-2.4-3.8-4.3-4.9c-1.9-1.1-4.1-1.7-6.6-1.7
		c-2.4,0-4.4,0.5-6.2,1.6c-1.8,1.1-3.1,2.5-3.9,4.3v-5.5H292V94.2c0.8,1.9,2.1,3.5,3.9,4.6c1.8,1.1,3.9,1.7,6.4,1.7
		c2.7,0,5.1-0.7,7.2-2s3.8-3.3,5-5.8s1.8-5.5,1.8-8.9s-0.6-6.4-1.8-8.9s-2.9-4.4-5-5.8c-2.1-1.3-4.5-2-7.2-2c-2.5,0-4.6,0.6-6.4,1.7
		c-1.8,1.1-3.1,2.7-3.9,4.6v-5.9h-10v48.1h0.1v30.8h10v-17.3c0-2.3,0.6-4,1.8-5.2s2.7-1.8,4.7-1.8c1.9,0,3.4,0.6,4.5,1.7
		c1.1,1.1,1.6,2.8,1.6,4.8v17.7h10V129c0-2.2,0.6-3.9,1.7-5.2s2.7-1.8,4.7-1.8c1.9,0,3.4,0.6,4.5,1.7c1.1,1.1,1.7,2.8,1.7,4.8v17.7
		h9.9v-18.9c0-4.4-1.1-7.8-3.4-10.3C331.3,114.7,328.2,113.4,324.2,113.4z M293.9,78c1.3-1.4,3.1-2.1,5.2-2.1c2.1,0,3.9,0.7,5.2,2.1
		s2,3.3,2,5.8s-0.7,4.4-2,5.8s-3,2.1-5.2,2.1c-2.1,0-3.8-0.7-5.2-2.2c-1.3-1.4-2-3.4-2-5.8C291.9,81.3,292.5,79.4,293.9,78z"/>
	<path class="st6" d="M364.2,119.7c-0.9-1.9-2.2-3.5-4-4.6s-3.9-1.7-6.4-1.7c-2.7,0-5.1,0.7-7.2,2c-2.1,1.3-3.8,3.3-5,5.8
		c-1.2,2.5-1.8,5.5-1.8,8.9c0,3.4,0.6,6.3,1.8,8.9c1.2,2.5,2.9,4.5,5,5.8c2.1,1.3,4.5,2,7.2,2c2.5,0,4.6-0.6,6.4-1.7
		c1.8-1.1,3.1-2.7,4-4.6v5.9h9.9v-32.6h-9.9V119.7z M362.2,135.8c-1.3,1.4-3.1,2.2-5.2,2.2c-2.1,0-3.9-0.7-5.2-2.1s-2-3.3-2-5.8
		s0.7-4.4,2-5.8s3-2.1,5.2-2.1c2.1,0,3.8,0.7,5.2,2.1c1.3,1.4,2,3.4,2,5.8C364.2,132.5,363.5,134.4,362.2,135.8z"/>
	<path class="st6" d="M414.3,137c-0.5-0.5-0.8-1.4-0.8-2.7v-12.1h6.5v-8.4l0,0v-0.4h-6.5v-7.6h-10v7.6h-3.8l0,0
		c-2.3,0-4.4,0.6-6.3,1.7c-2,1.2-3.6,2.7-4.8,4.7v-6.1h-10v32.6h10v-14.8c0-0.1,0-0.2,0-0.2c0-0.1,0-0.2,0-0.3c0-7.8,9-8.7,11-8.8
		h0.2h0.1h3.6v12c0,4.4,1.1,7.5,3.2,9.4c2.1,1.9,5.1,2.8,8.9,2.8h4.5v-8.6H417C415.7,137.8,414.9,137.5,414.3,137z"/>
</g>
<path class="st7" d="M203.6,141.9c0.3,8.7-6.6,15.9-15.3,16.3c-8.7,0.4-16.1-6.3-16.6-15s6.4-16.1,15.3-16.5
	C195.9,126.4,203.4,133.2,203.6,141.9z"/>
<g>
	<g>
		<path class="st7" d="M239.6,59.3l-29.8,0.2c-1.7,0-3.4,0.7-4.6,2l-28.3,38.9l-9.7-0.1c-9.5-0.1-17.8,7.6-18.4,17.2l-1.8,28.8h13.9
			l-0.6-2.8l0,0c0-15.7,12.7-28.4,28.4-28.4h49.1 M209.2,68.4c1.1-1.7,3-2.7,4.9-2.6l15.8,0.5c2.4,0.1,4.2,2.1,4,4.4L232.2,97
			c-0.1,2.2-2,4-4.3,3.9l-32.2-0.8c-3.3-0.1-5.2-3.7-3.4-6.5L209.2,68.4z"/>
	</g>
</g>
<g>
	<rect x="212.2" y="124.9" class="st7" width="57.4" height="5.7"/>
</g>
<g>
	<rect x="217.3" y="140.6" class="st7" width="52.3" height="5.7"/>
</g>
<path class="st7" d="M1225.5,546.2c0.2,6.1-4.6,11.1-10.6,11.4c-6.1,0.3-11.2-4.4-11.6-10.4c-0.3-6.1,4.4-11.2,10.6-11.5
	C1220.2,535.4,1225.3,540.2,1225.5,546.2z"/>
<g>
	<path class="st7" d="M1195.3,546.7L1195.3,546.7c0-10.9,8.9-19.8,19.8-19.8h34.2l2.4-37.9c-0.4-0.1-0.7-0.2-1.1-0.2l-20.8-0.6
		c-1.2,0-2.4,0.5-3.2,1.4l-19.6,27.1l-6.7-0.1c-6.6-0.1-12.4,5.3-12.8,12l-1.3,20.1h9.7L1195.3,546.7z M1229.4,494.3
		c0.8-1.2,2.1-1.9,3.4-1.8l11,0.4c1.6,0.1,2.9,1.5,2.8,3.1l-1.2,18.3c-0.1,1.6-1.4,2.8-3,2.7l-22.4-0.5c-2.3-0.1-3.6-2.6-2.4-4.5
		L1229.4,494.3z"/>
</g>
<g>
	<rect x="1236.1" y="544.7" class="st7" width="42.1" height="4"/>
</g>
<g>
	<rect x="1231.5" y="533.7" class="st7" width="46.8" height="4"/>
</g>
<g>
	<path d="M-213.5,1125c-0.3,0.3-0.6,0.3-0.8-0.2c-1-1.6-2.1-3.1-3.8-4c-0.6-0.3-1.3-0.5-2-0.5c-3.3-0.1-6.7,0-10,0
		c-1.6,0-2.8,1.1-2.8,2.6c0,1.6,1.2,2.7,2.8,2.7c1.8,0,3.6,0,5.3,0c1.6,0,2.6-1,2.6-2.7c0-0.5,0-1,0-1.6c0.4,0,0.7,0,1,0s0.6,0,1,0
		c0.5,3-0.5,5.5-3.5,6.3c-0.2,0-0.3,0.1-0.5,0.1c-2.1,0-4.2,0.1-6.4,0c-2.2-0.1-4.1-2.1-4.5-4.4c-0.4-2.8,1.2-5.4,4-6
		c0.5-0.1,1-0.2,1.5-0.2c3,0,6.1,0,9.1,0c1.2,0,2.3-0.4,3.2-1.2c1.2-0.9,2.1-2.1,2.8-3.4c0.2-0.4,0.5-0.5,0.8-0.2
		C-213.5,1116.6-213.5,1120.8-213.5,1125z"/>
	<path d="M-237,1117v-1.1h-2.1v5.3h2.1v-1.1h1.1c0.7-2,2.4-3.2,2.4-3.2L-237,1117L-237,1117z"/>
</g>
</svg>
